<?xml version="1.0" encoding="UTF-8"?>
<svg id="Layer_2" data-name="Layer 2" xmlns="http://www.w3.org/2000/svg" viewBox="0 0 114.97 114.97">
  <defs>
    <style>
      .cls-1 {
        fill: #282527;
      }

      .cls-1, .cls-2 {
        stroke-width: 0px;
      }

      .cls-2 {
        fill: #ffe406;
      }

      @media (prefers-color-scheme: dark) {
      .cls-1 {
        fill: #FFFEF;
      }

      .cls-2 {
        fill: #ffe406;
      }
    }
    </style>
  </defs>
    <g>
      <path class="cls-2" d="M114.97,57.48c0,44.45-13.04,57.48-57.48,57.48S0,101.93,0,57.48,13.04,0,57.49,0s57.48,13.04,57.48,57.48"/>
      <path class="cls-1" d="M44.79,84.07c5.85,0,9.33-6.07,7-15.53l-.66-2.68c-.35-1.5,1.06-2.07,1.85-.75l3.78,6.12c6.47,10.47,9.11,12.85,13.95,12.85,4.58,0,8.36-3.08,15.31-13.95l3.34-5.24c4.88-7.66,6.86-11.57,6.86-16.67,0-6.42-4.71-11.66-11.88-11.66-5.5,0-8.93,2.42-11.97,8.49l-.79,1.58c-.53,1.1-1.67,1.01-2.07,0l-.57-1.54c-2.16-5.76-5.9-8.54-11.48-8.54s-9.15,2.77-11.35,8.54l-.57,1.5c-.4,1.06-1.45,1.14-2.07,0l-.79-1.54c-3.08-6.03-6.6-8.49-12.1-8.49-7.17,0-11.83,5.24-11.83,11.66,0,5.1,1.85,9.02,6.82,16.54l3.26,4.93c7.83,11.88,11.44,14.39,15.97,14.39Z"/>
    </g>
</svg>
